<svg width="23" height="22" viewBox="0 0 23 22" fill="none" xmlns="http://www.w3.org/2000/svg">
<g id="ListDashes">
<path id="Vector" d="M19.9099 4.8125V6.1875C19.9099 6.36984 19.8375 6.5447 19.7085 6.67364C19.5796 6.80257 19.4047 6.875 19.2224 6.875H8.90991C8.72758 6.875 8.55271 6.80257 8.42378 6.67364C8.29485 6.5447 8.22241 6.36984 8.22241 6.1875V4.8125C8.22241 4.63016 8.29485 4.4553 8.42378 4.32636C8.55271 4.19743 8.72758 4.125 8.90991 4.125H19.2224C19.4047 4.125 19.5796 4.19743 19.7085 4.32636C19.8375 4.4553 19.9099 4.63016 19.9099 4.8125ZM5.47241 4.125H4.09741C3.91508 4.125 3.74021 4.19743 3.61128 4.32636C3.48235 4.4553 3.40991 4.63016 3.40991 4.8125V6.1875C3.40991 6.36984 3.48235 6.5447 3.61128 6.67364C3.74021 6.80257 3.91508 6.875 4.09741 6.875H5.47241C5.65475 6.875 5.82962 6.80257 5.95855 6.67364C6.08748 6.5447 6.15991 6.36984 6.15991 6.1875V4.8125C6.15991 4.63016 6.08748 4.4553 5.95855 4.32636C5.82962 4.19743 5.65475 4.125 5.47241 4.125ZM19.2224 9.625H8.90991C8.72758 9.625 8.55271 9.69743 8.42378 9.82636C8.29485 9.9553 8.22241 10.1302 8.22241 10.3125V11.6875C8.22241 11.8698 8.29485 12.0447 8.42378 12.1736C8.55271 12.3026 8.72758 12.375 8.90991 12.375H19.2224C19.4047 12.375 19.5796 12.3026 19.7085 12.1736C19.8375 12.0447 19.9099 11.8698 19.9099 11.6875V10.3125C19.9099 10.1302 19.8375 9.9553 19.7085 9.82636C19.5796 9.69743 19.4047 9.625 19.2224 9.625ZM5.47241 9.625H4.09741C3.91508 9.625 3.74021 9.69743 3.61128 9.82636C3.48235 9.9553 3.40991 10.1302 3.40991 10.3125V11.6875C3.40991 11.8698 3.48235 12.0447 3.61128 12.1736C3.74021 12.3026 3.91508 12.375 4.09741 12.375H5.47241C5.65475 12.375 5.82962 12.3026 5.95855 12.1736C6.08748 12.0447 6.15991 11.8698 6.15991 11.6875V10.3125C6.15991 10.1302 6.08748 9.9553 5.95855 9.82636C5.82962 9.69743 5.65475 9.625 5.47241 9.625ZM19.2224 15.125H8.90991C8.72758 15.125 8.55271 15.1974 8.42378 15.3264C8.29485 15.4553 8.22241 15.6302 8.22241 15.8125V17.1875C8.22241 17.3698 8.29485 17.5447 8.42378 17.6736C8.55271 17.8026 8.72758 17.875 8.90991 17.875H19.2224C19.4047 17.875 19.5796 17.8026 19.7085 17.6736C19.8375 17.5447 19.9099 17.3698 19.9099 17.1875V15.8125C19.9099 15.6302 19.8375 15.4553 19.7085 15.3264C19.5796 15.1974 19.4047 15.125 19.2224 15.125ZM5.47241 15.125H4.09741C3.91508 15.125 3.74021 15.1974 3.61128 15.3264C3.48235 15.4553 3.40991 15.6302 3.40991 15.8125V17.1875C3.40991 17.3698 3.48235 17.5447 3.61128 17.6736C3.74021 17.8026 3.91508 17.875 4.09741 17.875H5.47241C5.65475 17.875 5.82962 17.8026 5.95855 17.6736C6.08748 17.5447 6.15991 17.3698 6.15991 17.1875V15.8125C6.15991 15.6302 6.08748 15.4553 5.95855 15.3264C5.82962 15.1974 5.65475 15.125 5.47241 15.125Z" fill="#696F79"/>
</g>
</svg>
